<svg width="27.000000" height="24.000000" viewBox="0 0 27 24" fill="none" xmlns="http://www.w3.org/2000/svg" xmlns:xlink="http://www.w3.org/1999/xlink">
	<desc>
			Created with Pixso.
	</desc>
	<defs>
		<clipPath id="clip2_260">
			<rect id="Saved" rx="-0.500000" width="26.000000" height="23.000000" transform="translate(0.500000 0.500000)" fill="white" fill-opacity="0"/>
		</clipPath>
	</defs>
	<g clip-path="url(#clip2_260)">
		<path id="Vector" d="M13.5 24C13.22 24 12.94 23.92 12.7 23.77C12.18 23.44 0 15.73 0 7.5C0 3.36 3.36 0 7.5 0C9.89 0 12.1 1.25 13.5 3.11C14.89 1.25 17.1 0 19.5 0C23.63 0 27 3.36 27 7.5C27 15.73 14.81 23.44 14.29 23.77C14.05 23.92 13.77 24 13.5 24ZM7.5 3C5.01 3 3 5.01 3 7.5C3 12.54 9.96 18.31 13.5 20.7C17.03 18.31 24 12.54 24 7.5C24 5.01 21.98 3 19.5 3C16.96 3 15 5.41 15 7.5C15 8.32 14.32 9 13.5 9C12.67 9 12 8.32 12 7.5C12 5.41 10.03 3 7.5 3Z" fill="#000000" fill-opacity="1.000000" fill-rule="nonzero"/>
	</g>
</svg>
