<svg width="63.625366" height="18.490021" viewBox="0 0 63.6254 18.49" fill="none" xmlns="http://www.w3.org/2000/svg" xmlns:xlink="http://www.w3.org/1999/xlink">
	<desc>
			Created with Pixso.
	</desc>
	<defs/>
	<path id="КУПИАВТО" d="M62.62 14.14C63.29 12.75 63.62 11.11 63.62 9.24C63.62 7.37 63.29 5.74 62.62 4.35C61.95 2.97 61.03 1.89 59.86 1.14C58.69 0.38 57.35 0 55.83 0Q54.16 0 52.76 0.62Q52.27 0.84 51.81 1.14C50.64 1.89 49.72 2.97 49.05 4.35C48.39 5.74 48.06 7.37 48.06 9.24C48.06 11.11 48.39 12.75 49.05 14.14C49.72 15.52 50.63 16.59 51.8 17.35Q52.22 17.62 52.68 17.83Q54.11 18.49 55.83 18.49C57.35 18.49 58.69 18.11 59.86 17.35C61.03 16.59 61.95 15.52 62.62 14.14ZM0 18.24L1.72 18.24L3.65 12.82L11.2 12.82L13.12 18.24L14.85 18.24L8.3 0.24L6.54 0.24L0 18.24ZM17.93 0.24L17.93 18.24L24.34 18.24C25.63 18.24 26.69 18.04 27.52 17.63Q28.61 17.1 29.21 16.23L29.21 16.23L29.21 16.23L29.21 16.23Q29.3 16.09 29.38 15.95Q29.46 15.82 29.53 15.68L29.53 15.68Q29.99 14.71 29.99 13.52C29.99 12.61 29.81 11.82 29.46 11.16C29.11 10.51 28.66 10 28.12 9.64C27.57 9.27 27.01 9.06 26.43 9.02L26.43 8.88C26.96 8.73 27.45 8.5 27.88 8.17C28.31 7.84 28.66 7.41 28.91 6.88C29.16 6.34 29.29 5.7 29.29 4.95Q29.29 3.72 28.8 2.73L28.8 2.73L28.8 2.73Q28.75 2.63 28.7 2.53C28.3 1.83 27.72 1.27 26.93 0.86Q25.76 0.24 24 0.24L17.93 0.24ZM32.86 1.72L32.86 0.24L45.91 0.24L45.91 1.72L40.21 1.72L40.21 18.24L38.57 18.24L38.57 1.72L32.86 1.72ZM61.21 5.1C61.75 6.25 62.02 7.63 62.02 9.24C62.03 10.85 61.76 12.23 61.22 13.39C60.68 14.54 59.94 15.42 59.01 16.02C58.08 16.63 57.02 16.94 55.83 16.94C54.65 16.94 53.59 16.63 52.66 16.02C51.73 15.41 50.99 14.53 50.46 13.38C49.92 12.23 49.65 10.85 49.65 9.24C49.65 7.62 49.92 6.24 50.46 5.09C51 3.94 51.74 3.06 52.67 2.46C53.6 1.85 54.66 1.54 55.83 1.54C57.02 1.54 58.08 1.85 59.01 2.46C59.94 3.06 60.67 3.95 61.21 5.1ZM24.15 8.37L19.57 8.37L19.57 1.72L24 1.72C25.23 1.72 26.16 2.02 26.78 2.62C27.4 3.22 27.71 4 27.71 4.95Q27.71 5.82 27.37 6.52L27.37 6.52L27.37 6.52Q27.32 6.62 27.26 6.72C26.97 7.23 26.55 7.64 26.02 7.93C25.48 8.22 24.86 8.37 24.15 8.37ZM10.67 11.34L7.48 2.38L7.36 2.38L4.17 11.34L10.67 11.34ZM24.34 16.76L19.57 16.76L19.57 9.83L24.41 9.83C25.22 9.83 25.92 9.99 26.52 10.32C27.12 10.65 27.59 11.09 27.91 11.66C28.25 12.21 28.42 12.83 28.42 13.52C28.42 14.45 28.08 15.22 27.41 15.84Q26.42 16.76 24.34 16.76Z" fill="#000000" fill-opacity="1.000000" fill-rule="evenodd"/>
</svg>
