<svg width="68.100708" height="18.243958" viewBox="0 0 68.1007 18.244" fill="none" xmlns="http://www.w3.org/2000/svg" xmlns:xlink="http://www.w3.org/1999/xlink">
	<desc>
			Created with Pixso.
	</desc>
	<defs/>
	<path id="КУПИАВТО" d="M5.1 10.32L10.88 17.99L15.6 17.99L8.26 8.34L15.28 0L10.54 0L4.56 7.18L3.8 7.18L3.8 0L0 0L0 17.99L3.8 17.99L3.8 10.32L5.1 10.32ZM19.46 15.15L19.46 18.24L20.81 18.24Q22.29 18.24 23.24 17.71C23.87 17.36 24.39 16.9 24.79 16.32C25.2 15.75 25.56 15.13 25.86 14.46L32.06 0L28.18 0L24.63 8.85L20.4 0L16.46 0L23 12.95L22.78 13.54C22.66 13.89 22.5 14.19 22.32 14.43C22.15 14.67 21.91 14.85 21.61 14.97C21.31 15.09 20.92 15.15 20.43 15.15L19.46 15.15ZM49.42 0L49.42 17.99L45.66 17.99L45.66 3.09L38.38 3.09L38.38 17.99L34.62 17.99L34.62 0L49.42 0ZM56.84 0L53.04 0L53.04 17.99L56.34 17.99L64.16 6.67L64.29 6.67L64.29 17.99L68.1 17.99L68.1 0L64.76 0L56.99 11.31L56.84 11.31L56.84 0Z" fill="#6C47FF" fill-opacity="1.000000" fill-rule="evenodd"/>
</svg>
