<svg width="56.000000" height="57.000000" viewBox="0 0 56 57" fill="none" xmlns="http://www.w3.org/2000/svg" xmlns:xlink="http://www.w3.org/1999/xlink">
	<desc>
			Created with Pixso.
	</desc>
	<defs/>
	<path id="Vector" d="M21 36C21 37.1 21.89 38 23 38L33 38C34.1 38 35 37.1 35 36L35 24L21 24L21 36ZM23 26L33 26L33 36L23 36L23 26Z" fill="#D73737" fill-opacity="1.000000" fill-rule="nonzero"/>
	<path id="Vector" d="M31 21L31 19L25 19L25 21L19 21L19 23L37 23L37 21L31 21Z" fill="#D73737" fill-opacity="1.000000" fill-rule="nonzero"/>
	<path id="Vector" d="M25 28L27 28L27 34L25 34L25 28Z" fill="#D73737" fill-opacity="1.000000" fill-rule="evenodd"/>
	<path id="Vector" d="M29 28L31 28L31 34L29 34L29 28Z" fill="#D73737" fill-opacity="1.000000" fill-rule="evenodd"/>
	<rect id="Delete button" rx="4.000000" width="54.000000" height="55.000000" transform="translate(1.000000 1.000000)" stroke="#D73737" stroke-opacity="1.000000" stroke-width="2.000000"/>
</svg>
