<svg width="24.000000" height="24.000000" viewBox="0 0 24 24" fill="none" xmlns="http://www.w3.org/2000/svg" xmlns:xlink="http://www.w3.org/1999/xlink">
	<desc>
			Created with Pixso.
	</desc>
	<defs/>
	<rect id="search-button" rx="2.500000" width="23.000000" height="23.000000" transform="translate(0.500000 0.500000)" fill="#4F2CD9" fill-opacity="1.000000"/>
	<rect id="Search" rx="-0.500000" width="11.000000" height="10.999391" transform="translate(6.500000 6.500000)" fill="#FFFFFF" fill-opacity="0"/>
	<path id="Vector" d="M18 17.13L14.71 13.85C15.37 13 15.74 11.96 15.74 10.87C15.74 9.57 15.23 8.34 14.31 7.42C13.39 6.5 12.17 6 10.87 6C9.57 6 8.34 6.5 7.42 7.42C6.5 8.34 6 9.57 6 10.87C6 12.17 6.5 13.39 7.42 14.31C8.34 15.23 9.57 15.74 10.87 15.74C11.96 15.74 13 15.37 13.85 14.71L17.13 17.99L18 17.13ZM10.87 14.52C9.89 14.52 8.97 14.14 8.28 13.45C7.59 12.76 7.21 11.84 7.21 10.87C7.21 9.89 7.59 8.97 8.28 8.28C8.97 7.59 9.89 7.21 10.87 7.21C11.84 7.21 12.76 7.59 13.45 8.28C14.14 8.97 14.52 9.89 14.52 10.87C14.52 11.84 14.14 12.76 13.45 13.45C12.76 14.14 11.84 14.52 10.87 14.52Z" fill="#FFFFFF" fill-opacity="1.000000" fill-rule="nonzero"/>
</svg>
